<?xml version="1.0" standalone="no"?><!DOCTYPE svg PUBLIC "-//W3C//DTD SVG 1.1//EN" "http://www.w3.org/Graphics/SVG/1.1/DTD/svg11.dtd"><svg t="1745554772561" class="icon" viewBox="0 0 1024 1024" version="1.1" xmlns="http://www.w3.org/2000/svg" p-id="1299" xmlns:xlink="http://www.w3.org/1999/xlink" width="200" height="200"><path d="M301.8 594.79l16.7-20.41c4-4.93 5.4-11 3.66-16.1L315 536.89c-4.37-13 10.72-27.34 25.53-24.29l24.39 5a22.68 22.68 0 0 0 17.77-4.29l21.77-16.18c13.21-9.82 30.88-3.38 29.89 10.9l-1.62 23.52A13.89 13.89 0 0 0 440 545l20.64 11.39c12.53 6.92 8.36 25.25-7.06 31l-25.39 9.51A22.68 22.68 0 0 0 415 609.54l-9 23.22c-5.47 14.09-25.71 19-34.26 8.27l-14.11-17.63c-3.39-4.26-9.19-6.37-15.51-5.66l-26.2 3c-15.92 1.75-24.26-13.56-14.12-25.95z" fill="#333333" p-id="1300"></path><path d="M150.874996 609.329585a169.06 190.09 49.78 1 0 290.294299-245.49145 169.06 190.09 49.78 1 0-290.294299 245.49145Z" fill="#3E5F9B" p-id="1301"></path><path d="M156.44 446.15l17.22-21.06c4.16-5.07 5.57-11.29 3.78-16.61L170 386.42c-4.51-13.4 11.06-28.21 26.34-25.06l25.16 5.18a23.46 23.46 0 0 0 18.34-4.43l22.45-16.69c13.64-10.13 31.87-3.49 30.85 11.24l-1.68 24.27a14.37 14.37 0 0 0 7.56 13.87l21.29 11.75c12.93 7.14 8.63 26.05-7.28 32l-26.2 9.81a23.45 23.45 0 0 0-13.67 13l-9.29 23.95c-5.65 14.54-26.53 19.59-35.35 8.54L214 475.67c-3.5-4.39-9.49-6.57-16-5.84l-27 3.05c-16.42 1.86-25-13.94-14.56-26.73z" fill="#333333" p-id="1302"></path><path d="M638.74 418.86m-223.48 0a223.48 223.48 0 1 0 446.96 0 223.48 223.48 0 1 0-446.96 0Z" fill="#325587" p-id="1303"></path><path d="M721.89 269.29l14.62 29.63a24.22 24.22 0 0 0 18.23 13.24l32.7 4.75c19.85 2.89 27.78 27.29 13.41 41.3l-23.66 23.06a24.24 24.24 0 0 0-7 21.43l5.59 32.56c3.39 19.78-17.37 34.86-35.13 25.52l-29.24-15.37a24.19 24.19 0 0 0-22.53 0l-29.25 15.37c-17.76 9.34-38.51-5.74-35.12-25.52l5.58-32.56a24.18 24.18 0 0 0-7-21.43l-23.66-23.06c-14.37-14-6.44-38.41 13.42-41.3l32.69-4.75a24.19 24.19 0 0 0 18.23-13.24l14.62-29.63c8.96-17.99 34.61-17.99 43.5 0zM627.14 689l0.15-23.11c0-5.58-3.06-11.46-8.28-15.74l-21.65-17.74c-13.14-10.77-10.08-27.9 5.18-29l25.13-1.78c6.06-0.43 10.79-3.65 12.63-8.6l7.7-20.53c4.65-12.48 24.86-11.2 34.2 2.16l15.38 22a26 26 0 0 0 16.09 10.41l26.37 5c16 3.06 25.45 21 16 30.32l-15.63 15.38c-3.77 3.71-4.77 9.34-2.68 15l8.65 23.67c5.25 14.37-9.13 24.17-24.34 16.58l-25-12.5c-6-3-12.67-3.43-17.75-1.12l-21 9.58c-12.92 5.92-31.24-5.98-31.15-19.98z" fill="#333333" p-id="1304"></path><path d="M510.977173 892.366686a190.09 176.09 27.46 1 0 162.400499-312.500928 190.09 176.09 27.46 1 0-162.400499 312.500928Z" fill="#3E5F9B" p-id="1305"></path><path d="M555.29 848.26l-21.63-17.34a19.34 19.34 0 0 0-17.94-3.61l-24.94 8c-15.14 4.85-30-10.89-25.23-26.64l7.94-25.92a21.56 21.56 0 0 0-3.24-18.75l-16.36-22.78c-9.94-13.83-1-32.66 15.11-31.86l26.55 1.32a18 18 0 0 0 15.93-8l14.83-22.06c9-13.39 29.43-9.29 34.57 7l8.46 26.74a21.54 21.54 0 0 0 13.1 13.82l25.56 9.08c15.5 5.55 19.2 26.92 6.25 36.16l-21.31 15.2a19.32 19.32 0 0 0-7.85 16.53l1 27.72c0.49 16.83-17.66 25.93-30.8 15.39z" fill="#333333" p-id="1306"></path></svg>