<?xml version="1.0" standalone="no"?><!DOCTYPE svg PUBLIC "-//W3C//DTD SVG 1.1//EN" "http://www.w3.org/Graphics/SVG/1.1/DTD/svg11.dtd"><svg t="1745673463069" class="icon" viewBox="0 0 1024 1024" version="1.1" xmlns="http://www.w3.org/2000/svg" p-id="946" xmlns:xlink="http://www.w3.org/1999/xlink" width="15px" height="15px"><path d="M288.7 412.4c-9.2 29.9-22.6 57.4-36.4 85.7-15.6 32-31.7 65.2-44.7 106.6-13.8 69.4-5.2 129.7 26.2 176.3 48 71.5 135.3 88.8 136.2 89 6 1.6 80 22.5 131.9-36.7l1.2-1.3c56.4-56.4-0.1-168.7-0.7-169.8L464 587.3l75.1 37.8c4.3 2.2 104.6 53.6 134.5 145.6 7.7 23.7 10.1 47.9 7 72.3C792 777.6 843.2 687.5 833.1 574.3c-8.8-98.5-64.1-191.2-108-242-0.4 34.9-10.5 70.5-37.3 94.4l-33.4 29.8-11.4-43.2c-38.6-146-112.4-215-158.6-245.1 4 121.6-41.7 239.6-126.5 326.8l-39.6-38c1.6-9-18.2-31.6-29.6-44.6zM575 953.6l35.7-69.1c17.4-33.8 20.9-65.5 10.7-96.9-8.4-25.7-24.7-47.7-42.2-65.2 8.3 47.2 5.8 104.8-36.6 147.8-75.6 85.7-181.3 54.5-185.8 53.2-1.4-0.1-107-20.6-168.2-111.1-40.2-59.3-51.6-133.6-34.1-221 15-48.2 32.8-84.7 48.5-116.9 21.4-43.9 39.8-81.7 42.9-128.3l5.9-93.9 45.3 82.4c7 12.6 19.5 26.9 31.7 40.7 9 10.2 19.6 22.1 28.3 35 58.8-82.5 83.3-184.5 68.3-284.7L418.9 82l41.9 13.1c6.1 2 134.6 44.4 209.4 226.7-0.8-15.3-4.4-30.4-10.5-44.5l-23.4-51.4 54.8 13.4c57 13.8 182.1 166.3 196.7 330.1C897.5 677.3 863.3 826 646.2 922L575 953.6z m0 0" fill="#d81e06" p-id="947"></path></svg>