<?xml version="1.0" standalone="no"?><!DOCTYPE svg PUBLIC "-//W3C//DTD SVG 1.1//EN" "http://www.w3.org/Graphics/SVG/1.1/DTD/svg11.dtd"><svg t="1745677090227" class="icon" viewBox="0 0 1024 1024" version="1.1" xmlns="http://www.w3.org/2000/svg" p-id="1720" xmlns:xlink="http://www.w3.org/1999/xlink"><path d="M644.266667 614.4l162.133333 162.133333c8.533333 8.533333 8.533333 21.333333 0 29.866667-8.533333 8.533333-21.333333 8.533333-29.866667 0l-162.133333-162.133333c-46.933333 38.4-102.4 59.733333-166.4 59.733333-140.8 0-256-115.2-256-256s115.2-256 256-256c115.2 0 213.333333 76.8 247.466667 187.733333 4.266667 12.8-4.266667 21.333333-12.8 25.6-12.8 4.266667-21.333333-4.266667-25.6-12.8-25.6-89.6-110.933333-153.6-204.8-153.6-119.466667 0-213.333333 93.866667-213.333334 213.333334s93.866667 213.333333 213.333334 213.333333c98.133333 0 179.2-64 204.8-153.6 4.266667-12.8 17.066667-17.066667 25.6-12.8 12.8 4.266667 17.066667 17.066667 12.8 25.6-12.8 29.866667-29.866667 59.733333-51.2 89.6z" p-id="1721"></path></svg>
